<svg xmlns="http://www.w3.org/2000/svg" width="38" height="24" viewBox="0 0 38 24" fill="none">
  <g clip-path="url(#clip0_1_29298)">
    <path d="M11.0958 2.55913e-05C12.0813 -0.0182339 13.0653 0.0825929 14.0266 0.300307C14.8359 0.476634 15.6042 0.804751 16.2909 1.26721C16.925 1.72708 17.4267 2.34533 17.7457 3.05989C18.1123 3.93857 18.2892 4.88451 18.2648 5.836C18.3064 6.88075 18.039 7.91462 17.496 8.80878C16.9247 9.65329 16.135 10.3277 15.2106 10.7606C16.465 11.0981 17.5576 11.8711 18.2919 12.9407C18.9968 14.0739 19.3511 15.3895 19.3104 16.7227C19.3337 17.7857 19.1134 18.8399 18.6665 19.8051C18.2534 20.647 17.6485 21.3808 16.9002 21.9476C16.1298 22.5082 15.2629 22.9229 14.3425 23.1712C13.388 23.4347 12.402 23.5671 11.4117 23.5646H0.538574V2.55913e-05H11.0958ZM10.4684 9.53096C11.2427 9.56281 12.0049 9.33149 12.6304 8.87485C12.9299 8.60874 13.1629 8.27639 13.3108 7.90438C13.4586 7.53236 13.5172 7.13099 13.4819 6.73234C13.502 6.26673 13.4091 5.80317 13.2111 5.38107C13.0432 5.045 12.7821 4.76411 12.4589 4.57181C12.1315 4.36014 11.7636 4.21852 11.3786 4.15592C10.9609 4.07516 10.5358 4.03843 10.1103 4.04632H5.46436V9.55198H10.4684V9.53096ZM10.7392 19.5634C11.2075 19.5697 11.6748 19.5193 12.1309 19.4132C12.5477 19.3214 12.943 19.1506 13.2954 18.9103C13.6406 18.67 13.9195 18.3467 14.1063 17.9704C14.3229 17.4905 14.4224 16.9662 14.3967 16.4404C14.4436 15.9614 14.38 15.4779 14.2108 15.0272C14.0415 14.5764 13.7711 14.1703 13.4202 13.84C12.6766 13.2934 11.7652 13.0226 10.843 13.0743H5.46436V19.5634H10.7392Z" fill="#003540"/>
    <path d="M26.3259 19.4763C26.7125 19.8339 27.1679 20.1093 27.6645 20.2858C28.1611 20.4624 28.6885 20.5363 29.2146 20.5032C30.0486 20.5242 30.8664 20.271 31.542 19.7825C32.0917 19.4259 32.5079 18.8981 32.7261 18.2811H36.6544C36.2358 20.0375 35.2137 21.592 33.7657 22.6743C32.3766 23.5944 30.735 24.0603 29.0686 24.0075C27.8793 24.0231 26.6989 23.8 25.5977 23.3514C24.6015 22.9368 23.7081 22.3101 22.9798 21.5152C22.2543 20.6822 21.697 19.7171 21.3384 18.673C20.936 17.506 20.739 16.2782 20.7562 15.0441C20.7488 13.8307 20.9525 12.6252 21.358 11.4813C21.9028 9.87193 22.9445 8.47618 24.3335 7.49433C25.7226 6.51248 27.3876 5.995 29.0897 6.01614C30.3463 5.98993 31.589 6.28341 32.7005 6.86894C33.7053 7.41876 34.572 8.18876 35.2356 9.12105C35.9144 10.0993 36.401 11.1972 36.6694 12.3566C36.9638 13.6015 37.0688 14.8835 36.9809 16.1596H25.2802C25.1854 17.3586 25.5603 18.5475 26.3259 19.4763ZM31.4593 10.5144C31.1319 10.1875 30.7381 9.93453 30.3044 9.7724C29.8707 9.61027 29.4073 9.54278 28.9452 9.57447C28.3323 9.55115 27.7238 9.68667 27.1789 9.96784C26.747 10.2051 26.3657 10.5244 26.0566 10.9077C25.7826 11.2671 25.5785 11.6745 25.4548 12.1089C25.3433 12.4711 25.2736 12.8449 25.2471 13.2229H32.4944C32.4313 12.2374 32.0715 11.294 31.4623 10.5159L31.4593 10.5144Z" fill="#003540"/>
    <path d="M33.3942 1.57349H24.313V3.89016H33.3942V1.57349Z" fill="#003540"/>
  </g>
  <defs>
    <clipPath id="clip0_1_29298">
      <rect width="36.48" height="24" fill="white" transform="translate(0.538574)"/>
    </clipPath>
  </defs>
</svg>