<svg xmlns="http://www.w3.org/2000/svg" width="25" height="24" viewBox="0 0 25 24" fill="none">
  <g clip-path="url(#clip0_1_29312)">
    <path d="M24.4399 12C24.4399 5.3726 19.0674 2.67029e-05 12.4399 2.67029e-05C5.81252 2.67029e-05 0.439941 5.3726 0.439941 12C0.439941 17.9896 4.82817 22.954 10.5649 23.8542V15.4688H7.51807V12H10.5649V9.35628C10.5649 6.34878 12.3565 4.68753 15.0975 4.68753C16.4104 4.68753 17.7837 4.9219 17.7837 4.9219V7.87503H16.2705C14.7798 7.87503 14.3149 8.80003 14.3149 9.74902V12H17.6431L17.111 15.4688H14.3149V23.8542C20.0517 22.954 24.4399 17.9896 24.4399 12Z" fill="#003540"/>
    <path d="M17.111 15.4688L17.6431 12H14.3149V9.74899C14.3149 8.80001 14.7798 7.875 16.2705 7.875H17.7837V4.92188C17.7837 4.92188 16.4104 4.6875 15.0975 4.6875C12.3565 4.6875 10.5649 6.34875 10.5649 9.35625V12H7.51807V15.4688H10.5649V23.8542C11.1759 23.9501 11.8021 24 12.4399 24C13.0778 24 13.704 23.9501 14.3149 23.8542V15.4688H17.111Z" fill="white"/>
  </g>
  <defs>
    <clipPath id="clip0_1_29312">
      <rect width="24" height="24" fill="white" transform="translate(0.439941)"/>
    </clipPath>
  </defs>
</svg>