<svg xmlns="http://www.w3.org/2000/svg" width="25" height="24" viewBox="0 0 25 24" fill="none">
  <g clip-path="url(#clip0_1_29303)">
    <path d="M7.04866 0.0839862C5.77185 0.144226 4.89993 0.347986 4.13769 0.647506C3.34881 0.954946 2.68017 1.36751 2.01489 2.03519C1.34961 2.70287 0.939934 3.37199 0.634654 4.16207C0.339214 4.92599 0.139054 5.79863 0.0826541 7.07615C0.0262542 8.35367 0.0137741 8.76431 0.0200141 12.023C0.0262541 15.2817 0.0406542 15.6902 0.102574 16.9704C0.163534 18.2469 0.366574 19.1186 0.666094 19.8811C0.974014 20.67 1.38609 21.3384 2.05401 22.0039C2.72193 22.6694 3.39057 23.0781 4.18257 23.3839C4.94577 23.6789 5.81866 23.88 7.09593 23.9359C8.37321 23.9918 8.78434 24.0048 12.0421 23.9985C15.2999 23.9923 15.71 23.9779 16.9899 23.9172C18.2699 23.8565 19.137 23.652 19.8997 23.3539C20.6886 23.0453 21.3575 22.6339 22.0225 21.9657C22.6875 21.2976 23.097 20.628 23.402 19.8374C23.6977 19.0742 23.8986 18.2013 23.954 16.925C24.0099 15.6441 24.0231 15.2352 24.0169 11.9769C24.0107 8.71871 23.996 8.31023 23.9353 7.03055C23.8746 5.75087 23.6713 4.88183 23.372 4.11887C23.0636 3.32999 22.652 2.66207 21.9843 1.99607C21.3167 1.33007 20.6466 0.920866 19.8563 0.616546C19.0926 0.321106 18.2202 0.119746 16.9429 0.0645462C15.6656 0.00934617 15.2545 -0.00481383 11.9955 0.00142617C8.73658 0.00766617 8.32858 0.0215862 7.04866 0.0839862ZM7.18881 21.7771C6.01881 21.7262 5.38353 21.5318 4.96017 21.3691C4.39953 21.1531 4.00017 20.892 3.57825 20.4741C3.15633 20.0563 2.89713 19.6555 2.67825 19.0961C2.51385 18.6727 2.31585 18.0381 2.26113 16.8681C2.20161 15.6036 2.18913 15.2239 2.18217 12.0201C2.17521 8.81639 2.18745 8.43719 2.24289 7.17215C2.29281 6.00311 2.48841 5.36711 2.65089 4.94399C2.86689 4.38263 3.12705 3.98399 3.54585 3.56231C3.96465 3.14063 4.36425 2.88095 4.92417 2.66207C5.34705 2.49695 5.98161 2.30063 7.15113 2.24495C8.41665 2.18495 8.79585 2.17295 11.9991 2.16599C15.2024 2.15903 15.5826 2.17103 16.8486 2.22671C18.0176 2.27759 18.6539 2.47127 19.0765 2.63471C19.6374 2.85071 20.0365 3.11015 20.4582 3.52967C20.8799 3.94919 21.1398 4.34735 21.3587 4.90847C21.524 5.33015 21.7203 5.96447 21.7755 7.13471C21.8358 8.40023 21.8495 8.77967 21.8552 11.9827C21.861 15.1857 21.8497 15.5661 21.7943 16.8307C21.7431 18.0007 21.5492 18.6362 21.3863 19.0601C21.1703 19.6205 20.9099 20.0201 20.4908 20.4415C20.0718 20.8629 19.6727 21.1226 19.1125 21.3415C18.6901 21.5064 18.0548 21.7032 16.8863 21.7589C15.6207 21.8184 15.2415 21.8309 12.0371 21.8378C8.83257 21.8448 8.45457 21.8318 7.18905 21.7771M16.9715 5.58647C16.9719 5.87129 17.0569 6.14958 17.2155 6.38613C17.3742 6.62268 17.5994 6.80688 17.8627 6.91541C18.1261 7.02395 18.4157 7.05196 18.6949 6.99589C18.9742 6.93982 19.2305 6.8022 19.4316 6.60043C19.6326 6.39866 19.7693 6.1418 19.8243 5.86235C19.8794 5.58289 19.8503 5.29339 19.7408 5.03045C19.6313 4.76752 19.4463 4.54296 19.2091 4.38518C18.972 4.22741 18.6934 4.1435 18.4086 4.14407C18.0267 4.14483 17.6609 4.29721 17.3914 4.5677C17.1219 4.83819 16.9708 5.20464 16.9715 5.58647ZM5.85705 12.012C5.86377 15.4152 8.62761 18.1677 12.0301 18.1613C15.4326 18.1548 18.1871 15.3912 18.1806 11.988C18.1741 8.58479 15.4095 5.83151 12.0066 5.83823C8.60361 5.84495 5.85057 8.60927 5.85705 12.012ZM8.01849 12.0077C8.01693 11.2165 8.25 10.4427 8.68823 9.78401C9.12646 9.12534 9.75017 8.6114 10.4805 8.3072C11.2108 8.003 12.0149 7.92219 12.7912 8.075C13.5674 8.22781 14.2809 8.60736 14.8414 9.16568C15.402 9.72399 15.7844 10.436 15.9402 11.2116C16.0961 11.9872 16.0185 12.7917 15.7172 13.5232C15.4159 14.2547 14.9044 14.8805 14.2475 15.3213C13.5905 15.7621 12.8176 15.9983 12.0265 15.9998C11.5012 16.0009 10.9808 15.8985 10.4951 15.6985C10.0093 15.4985 9.56774 15.2047 9.19555 14.834C8.82336 14.4633 8.52784 14.0228 8.32588 13.5379C8.12392 13.053 8.01947 12.533 8.01849 12.0077Z" fill="#003540"/>
  </g>
  <defs>
    <clipPath id="clip0_1_29303">
      <rect width="24" height="24" fill="white" transform="translate(0.0185547)"/>
    </clipPath>
  </defs>
</svg>
