<svg xmlns="http://www.w3.org/2000/svg" width="25" height="24" viewBox="0 0 25 24" fill="none">
  <path d="M20.6718 20.4496H17.0803V14.8805C17.0803 13.5525 17.0563 11.8429 15.2123 11.8429C13.3417 11.8429 13.0555 13.2899 13.0555 14.7838V20.4492H9.46392V8.99689H12.9118V10.562H12.9601C13.3051 9.97782 13.8037 9.49726 14.4028 9.17149C15.0019 8.84572 15.679 8.68693 16.3619 8.71203C20.0021 8.71203 20.6733 11.0828 20.6733 14.167L20.6718 20.4496ZM5.41147 7.43144C4.99925 7.43151 4.59626 7.31055 4.25347 7.08385C3.91068 6.85715 3.64351 6.53489 3.48569 6.15783C3.32787 5.78077 3.28651 5.36584 3.36686 4.96551C3.4472 4.56517 3.64565 4.19743 3.93708 3.90876C4.22851 3.6201 4.59985 3.42348 5.00413 3.34378C5.40842 3.26408 5.82748 3.30488 6.20835 3.46101C6.58922 3.61713 6.91477 3.88158 7.14385 4.22091C7.37293 4.56025 7.49525 4.95922 7.49532 5.36738C7.49537 5.63839 7.4415 5.90675 7.3368 6.15715C7.23211 6.40754 7.07864 6.63507 6.88514 6.82674C6.69164 7.0184 6.46188 7.17045 6.20903 7.27421C5.95618 7.37796 5.68518 7.43139 5.41147 7.43144ZM7.20724 20.4496H3.61196V8.99689H7.20724V20.4496ZM22.4623 0.00163516H1.80722C1.33841 -0.00360329 0.886651 0.175663 0.551259 0.500042C0.215867 0.824421 0.0242763 1.26737 0.0185547 1.73156V22.2681C0.0240805 22.7325 0.215558 23.1758 0.550939 23.5005C0.88632 23.8252 1.33818 24.0048 1.80722 23.9999H22.4623C22.9323 24.0057 23.3854 23.8266 23.7221 23.5019C24.0588 23.1772 24.2516 22.7334 24.2581 22.2681V1.73008C24.2514 1.26497 24.0585 0.821515 23.7218 0.497144C23.3851 0.172773 22.9321 -0.00598143 22.4623 0.000152822" fill="#003540"/>
</svg>