<svg xmlns="http://www.w3.org/2000/svg" width="41" height="40" viewBox="0 0 41 40" fill="none">
  <path d="M33.8744 27.2568C29.0256 24.9096 28.2528 21.2856 28.2184 21.0168C28.1768 20.6912 28.1296 20.4352 28.4888 20.104C28.8352 19.784 30.372 18.8328 30.7984 18.5352C31.5032 18.0424 31.8136 17.5504 31.5848 16.9456C31.4248 16.5272 31.0352 16.3696 30.6248 16.3696C30.4954 16.37 30.3663 16.3845 30.24 16.4128C29.4656 16.5808 28.7136 16.9688 28.2784 17.0736C28.2261 17.0871 28.1724 17.0944 28.1184 17.0952C27.8864 17.0952 27.7984 16.992 27.8208 16.7128C27.8752 15.8664 27.9904 14.2144 27.8568 12.6712C27.6736 10.548 26.9888 9.49603 26.1768 8.56563C25.784 8.11443 23.96 6.17603 20.44 6.17603C16.92 6.17603 15.0984 8.11443 14.708 8.56003C13.8936 9.49043 13.2096 10.5424 13.028 12.6656C12.8944 14.2088 13.0144 15.86 13.064 16.7072C13.08 16.9728 12.9984 17.0896 12.7664 17.0896C12.7124 17.0887 12.6587 17.0815 12.6064 17.068C12.172 16.9632 11.42 16.5752 10.6456 16.4072C10.5193 16.3789 10.3903 16.3644 10.2608 16.364C9.84883 16.364 9.46083 16.524 9.30083 16.94C9.07203 17.5448 9.38082 18.0368 10.088 18.5296C10.5144 18.8272 12.0512 19.7776 12.3976 20.0984C12.756 20.4296 12.7096 20.6856 12.668 21.0112C12.6336 21.284 11.86 24.908 7.01203 27.2512C6.72803 27.3888 6.24482 27.68 7.09682 28.1504C8.43442 28.8896 9.32482 28.8104 10.0168 29.256C10.604 29.6344 10.2568 30.4504 10.684 30.7448C11.2088 31.1072 12.76 30.7192 14.764 31.3808C16.444 31.9344 17.4648 33.4984 20.444 33.4984C23.4232 33.4984 24.4736 31.9272 26.124 31.3808C28.124 30.7192 29.6784 31.1072 30.204 30.7448C30.6304 30.4504 30.284 29.6344 30.8712 29.256C31.5632 28.8104 32.4528 28.8896 33.7912 28.1504C34.6416 27.6856 34.1584 27.3944 33.8744 27.2568Z" fill="#003540"/>
  <path d="M35.984 26.9808C35.7664 26.3888 35.3521 26.072 34.8801 25.8096C34.7913 25.7576 34.7097 25.716 34.6401 25.684C34.4993 25.6112 34.3552 25.5408 34.212 25.4664C32.7409 24.6864 31.5921 23.7024 30.7952 22.536C30.569 22.2076 30.3727 21.8596 30.2088 21.496C30.1409 21.3016 30.1441 21.1912 30.1929 21.0904C30.2413 21.0127 30.3053 20.946 30.3809 20.8944C30.6337 20.7272 30.8945 20.5576 31.0713 20.4432C31.3865 20.2392 31.636 20.0776 31.7969 19.9632C32.4009 19.5408 32.8232 19.092 33.0872 18.5904C33.2714 18.2438 33.3789 17.8617 33.4022 17.4699C33.4255 17.0782 33.3642 16.686 33.2225 16.32C32.8225 15.2672 31.8281 14.6136 30.6233 14.6136C30.3691 14.6134 30.1157 14.6402 29.8673 14.6936C29.8008 14.708 29.7344 14.7232 29.6697 14.74C29.6809 14.02 29.6649 13.26 29.6009 12.512C29.3737 9.8824 28.4529 8.504 27.4929 7.4048C26.8781 6.71599 26.154 6.13324 25.3497 5.68C23.8929 4.848 22.2409 4.4256 20.4401 4.4256C18.6392 4.4256 16.9953 4.848 15.5368 5.68C14.7305 6.13338 14.005 6.7173 13.3897 7.408C12.4297 8.5072 11.5089 9.888 11.2817 12.5152C11.2177 13.2632 11.2017 14.0272 11.212 14.7432C11.1473 14.7264 11.0817 14.7112 11.0153 14.6968C10.7668 14.6434 10.5134 14.6166 10.2593 14.6168C9.05365 14.6168 8.05765 15.2704 7.65925 16.3232C7.51685 16.6893 7.45493 17.0818 7.47771 17.474C7.50048 17.8662 7.60742 18.2488 7.79125 18.596C8.05605 19.0976 8.47845 19.5464 9.08245 19.9688C9.24245 20.0808 9.49285 20.2424 9.80805 20.4488C9.97845 20.5592 10.2273 20.7208 10.4713 20.8824C10.5566 20.9376 10.6292 21.0104 10.6841 21.096C10.7353 21.2008 10.7369 21.3136 10.6609 21.5216C10.4992 21.8775 10.3062 22.2183 10.0841 22.54C9.30485 23.68 8.18965 24.6464 6.76565 25.42C6.01125 25.82 5.22725 26.0872 4.89605 26.9872C4.64645 27.6664 4.80965 28.4392 5.44405 29.0904C5.67688 29.3334 5.94693 29.5379 6.24405 29.696C6.86228 30.0358 7.51968 30.2988 8.20165 30.4792C8.34239 30.5155 8.47599 30.5753 8.59685 30.656C8.82805 30.8584 8.79525 31.1632 9.10325 31.6096C9.25786 31.8403 9.45431 32.04 9.68245 32.1984C10.3289 32.6448 11.0553 32.6728 11.8249 32.7024C12.5201 32.7288 13.3081 32.7592 14.2081 33.056C14.5809 33.1792 14.9681 33.4176 15.4169 33.696C16.4945 34.3584 17.9696 35.2648 20.4384 35.2648C22.9072 35.2648 24.3929 34.3536 25.4785 33.6888C25.9241 33.4152 26.3089 33.1792 26.6713 33.0592C27.5713 32.7616 28.3593 32.732 29.0545 32.7056C29.8241 32.676 30.5504 32.648 31.1968 32.2016C31.467 32.0132 31.6922 31.7673 31.8561 31.4816C32.0777 31.1048 32.0721 30.8416 32.2801 30.6576C32.3934 30.5807 32.5189 30.5234 32.6513 30.488C33.3425 30.307 34.0089 30.0415 34.6353 29.6976C34.9509 29.5282 35.2351 29.3058 35.4753 29.04L35.4833 29.0304C36.0785 28.3936 36.2281 27.6432 35.984 26.9808ZM33.7896 28.16C32.4513 28.8992 31.5616 28.82 30.8696 29.2656C30.2817 29.644 30.6297 30.46 30.2024 30.7544C29.6777 31.1168 28.1265 30.7288 26.1224 31.3904C24.4697 31.9368 23.4152 33.508 20.4424 33.508C17.4696 33.508 16.4401 31.94 14.7601 31.3864C12.7601 30.7248 11.2057 31.1128 10.6801 30.7504C10.2537 30.456 10.6001 29.64 10.0129 29.2616C9.32005 28.816 8.43045 28.8952 7.09285 28.16C6.24085 27.6896 6.72405 27.3984 7.00805 27.2608C11.8561 24.9136 12.6297 21.2896 12.6641 21.0208C12.7057 20.6952 12.7521 20.4392 12.3937 20.108C12.0473 19.788 10.5105 18.8368 10.0841 18.5392C9.37845 18.0464 9.06805 17.5544 9.29685 16.9496C9.45685 16.5312 9.84725 16.3736 10.2569 16.3736C10.3863 16.374 10.5153 16.3885 10.6417 16.4168C11.4161 16.5848 12.1681 16.9728 12.6025 17.0776C12.6548 17.091 12.7085 17.0983 12.7625 17.0992C12.9945 17.0992 13.0761 16.9824 13.0601 16.7168C13.0105 15.8696 12.8905 14.2184 13.0241 12.6752C13.2073 10.552 13.8913 9.5 14.7041 8.5696C15.0945 8.1224 16.9289 6.184 20.4369 6.184C23.9449 6.184 25.784 8.1144 26.1744 8.56C26.9881 9.4904 27.6728 10.5424 27.8545 12.6656C27.9881 14.2088 27.8729 15.8608 27.8185 16.7072C27.8001 16.9864 27.8841 17.0896 28.1161 17.0896C28.17 17.0887 28.2238 17.0815 28.2761 17.068C28.7113 16.9632 29.4633 16.5752 30.2376 16.4072C30.364 16.3789 30.493 16.3644 30.6224 16.364C31.0345 16.364 31.4225 16.524 31.5825 16.94C31.8113 17.5448 31.5025 18.0368 30.7961 18.5296C30.3697 18.8272 28.8328 19.7776 28.4865 20.0984C28.1272 20.4296 28.1745 20.6856 28.2161 21.0112C28.2505 21.284 29.0233 24.908 33.872 27.2512C34.1584 27.3944 34.6416 27.6856 33.7896 28.16Z" fill="#003540"/>
</svg>