<svg xmlns="http://www.w3.org/2000/svg" width="35" height="24" viewBox="0 0 35 24" fill="none">
  <g clip-path="url(#clip0_1_29307)">
    <path d="M33.7255 3.74768C33.3325 2.27245 32.1744 1.11077 30.7036 0.716516C28.038 0 17.349 0 17.349 0C17.349 0 6.66002 0 3.99434 0.716516C2.52369 1.11077 1.36538 2.27245 0.972327 3.74768C0.258057 6.42141 0.258057 12 0.258057 12C0.258057 12 0.258057 17.5785 0.972327 20.2525C1.36538 21.7275 2.52369 22.8892 3.99434 23.2836C6.66002 24 17.349 24 17.349 24C17.349 24 28.038 24 30.7036 23.2836C32.1744 22.8892 33.3325 21.7275 33.7255 20.2525C34.4399 17.5785 34.4399 12 34.4399 12C34.4399 12 34.4399 6.42141 33.7255 3.74768Z" fill="#003540"/>
    <path d="M13.853 17.0649L22.7869 12.0002L13.853 6.93504V17.0649Z" fill="white"/>
  </g>
  <defs>
    <clipPath id="clip0_1_29307">
      <rect width="34.1818" height="24" fill="white" transform="translate(0.258057)"/>
    </clipPath>
  </defs>
</svg>